<svg xmlns="http://www.w3.org/2000/svg" viewBox="0 0 15.77 14.99"><defs><style>.cls-1{fill:none;stroke:#000;stroke-miterlimit:10;}</style></defs><title>Asset 6</title><g id="Layer_2" data-name="Layer 2"><g id="Layer_1-2" data-name="Layer 1"><path class="cls-1" d="M8.39.86,9.77,5.08a.54.54,0,0,0,.51.36h4.46a.53.53,0,0,1,.31,1L11.45,9a.52.52,0,0,0-.2.59l1.38,4.2a.53.53,0,0,1-.81.6L8.2,11.78a.54.54,0,0,0-.62,0L4,14.39a.53.53,0,0,1-.81-.6l1.38-4.2A.53.53,0,0,0,4.33,9L.72,6.4a.53.53,0,0,1,.31-1H5.5A.52.52,0,0,0,6,5.08L7.38.86A.53.53,0,0,1,8.39.86Z"/></g></g></svg>