<svg xmlns="http://www.w3.org/2000/svg" viewBox="0 0 115.05 22.08">
  <g id="Layer_2" data-name="Layer 2">
    <g id="Layer_1-2" data-name="Layer 1">
      <g>
        <path d="M14.59,18l-.47-7.52C14,7.8,13.83,5,13.88,3.12L10.61,16H7.36L3.87,3.09a69.49,69.49,0,0,1-.1,7.47L3.33,18H0L1.43,0H5.85l3.2,12.58L12.06,0h4.48l1.4,18Z"/>
        <path d="M32.53,12.12H23.89c.24,2.8,1.56,3.71,3.38,3.71a5.74,5.74,0,0,0,3.44-1.22l1.37,1.9A7.9,7.9,0,0,1,27,18.36c-4.27,0-6.55-2.84-6.55-7.18,0-4.19,2.21-7.36,6.11-7.36s6.05,2.6,6.05,6.94C32.6,11.21,32.55,11.75,32.53,12.12ZM29.3,9.8c0-2.26-.8-3.61-2.68-3.61-1.56,0-2.54,1-2.73,3.77H29.3Z"/>
        <path d="M47.27,22.08H44.85L44.41,18H36.27l-.42,4.11H33.41V15.44h.91c.91-.62,1.53-1.35,1.92-6.37l.37-4.86h9.23V15.44h1.43ZM39.52,6.55l-.18,2.19c-.34,4.42-.86,5.74-2.37,6.7h5.67V6.55Z"/>
        <path d="M57.07,8.5v2.65H49.22V8.5Z"/>
        <path d="M73.58,22.08h-2.5L70.64,18H60.76l-.44,4.11h-2.5V15.26H59.1c1.22-1.3,1.56-3.14,2.42-9.83L62.19,0h9.86V15.26h1.53ZM65.13,2.63,64.84,5.3c-.7,6.43-1.22,8.58-2.93,10h6.76V2.63Z"/>
        <path d="M87.51,12.12H78.88c.24,2.8,1.56,3.71,3.38,3.71a5.74,5.74,0,0,0,3.44-1.22l1.37,1.9A7.9,7.9,0,0,1,82,18.36c-4.27,0-6.56-2.84-6.56-7.18,0-4.19,2.21-7.36,6.12-7.36s6,2.6,6,6.94C87.59,11.21,87.54,11.75,87.51,12.12ZM84.29,9.8c0-2.26-.8-3.61-2.68-3.61-1.56,0-2.55,1-2.73,3.77h5.41Z"/>
        <path d="M93.47,12.22V18H90.14V4.21h3.33V9.7h4.65V4.21h3.33V18H98.12V12.22Z"/>
        <path d="M110.6,6.76V18h-3.33V6.76H103V4.21h12l-.42,2.55Z"/>
      </g>
    </g>
  </g>
</svg>
