<svg xmlns="http://www.w3.org/2000/svg" viewBox="0 0 250 230.58"><defs><style>.cls-1{fill:#fff;}.cls-2{fill:none;}.cls-3{fill:#2fc0f9;}</style></defs><title>Мед-Дент</title><g id="Layer_2" data-name="Layer 2"><g id="Layer_1-2" data-name="Layer 1"><path class="cls-1" d="M167.54,230.58c-13.17,0-27.1-6.67-42.54-20.38q-1.77,1.58-3.53,3c-.65.54-1.3,1.07-2,1.59l-.86.67,0,0c-.39.31-.77.61-1.17.91l-1.17.87-.91.67c-.25.19-1,.69-1,.69-.4.29-.81.57-1.21.84l-.89.6-.14.09L111,221c-.36.24-.7.45-1,.66l-1.25.76-1,.6c-.5.29-.92.53-1.35.76s-.76.42-1.14.61l-1.29.67-1.16.57-1.39.63-1.17.51c-.51.22-1,.4-1.45.59l-.1,0-1.14.44-1.51.51-.17.06-1.11.35c-.49.15-1,.29-1.56.43l-.18.05c-.38.1-.75.2-1.13.28-.55.13-1.12.25-1.68.35l-.09,0c-.47.09-.87.17-1.27.23-.6.1-1.26.18-1.93.26l-1.13.12c-1.11.09-2.2.14-3.25.14-22,0-41.22-18.41-58.74-56.29C11.36,147.58,2.52,116.39.64,92.89-1.21,69.82,1,50.68,7.08,36,15.15,16.65,30.35,4.2,49.86,1A70.56,70.56,0,0,1,61.43,0C75.06,0,87,3.8,97.58,7.15c9.36,3,18.2,5.78,27.42,5.78s18.06-2.81,27.42-5.78C163,3.8,174.94,0,188.57,0a70.56,70.56,0,0,1,11.57,1C219.65,4.2,234.85,16.65,242.92,36c6.12,14.68,8.29,33.82,6.44,56.89-1.88,23.5-10.72,54.69-23.08,81.4C208.76,212.17,189.54,230.58,167.54,230.58Z"/><path class="cls-2" d="M144,186.73c.64-.79,1.33-1.66,2.07-2.6,9.37,8.54,17.22,12.93,21.48,12.93,3.9,0,14.84-7.7,28.32-36.84,10.65-23,18.53-50.48,20.09-70,1.9-23.71-.26-52.7-21.32-56.21-10.53-1.76-20.51,1.41-32.07,5.08-10.85,3.45-23.15,7.35-37.56,7.35s-26.71-3.9-37.56-7.35C75.88,35.42,65.89,32.25,55.37,34c-21.06,3.51-23.22,32.5-21.32,56.21,1.56,19.52,9.44,47,20.09,70,13.48,29.14,24.42,36.84,28.32,36.84,6.51,0,21.43-10.28,37.32-29.92,14.93-18.45,25-38.39,25-49.61S129.17,104.1,125,104.1s-19.74,2.28-19.74,13.43c0,7,3.94,17.49,10.55,28.85q-2.52,3.74-5.6,7.75-2.28,3-4.49,5.59c-7.86-12.29-16-28.39-16-42.19,0-9.83,5-18.14,14.23-23.41A45,45,0,0,1,125,88.52a45,45,0,0,1,21.08,5.6c9.18,5.27,14.24,13.58,14.24,23.41,0,22.52-21.76,51.16-28.43,59.4s-30.37,35.7-49.43,35.7h85.08c-10.3,0-21.93-8-31.51-16.64C138.72,193.05,141.38,190,144,186.73Z"/><path class="cls-2" d="M17.94,17.94V212.63H82.46c-17.55,0-32.77-24.94-42.46-45.87-11.35-24.54-19.78-54.1-21.48-75.3-1.61-20.2.11-36.53,5.12-48.55,5.69-13.64,15.78-22,29.17-24.26,14.22-2.37,27,1.68,39.34,5.6C102.4,27.5,113,30.87,125,30.87s22.6-3.37,32.85-6.62c12.35-3.92,25.12-8,39.34-5.6,13.39,2.23,23.48,10.62,29.17,24.26,5,12,6.73,28.35,5.12,48.55-1.7,21.2-10.13,50.76-21.48,75.3-9.69,20.93-24.91,45.87-42.46,45.87h64.52V17.94Z"/><path class="cls-3" d="M210,166.76c11.35-24.54,19.78-54.1,21.48-75.3,1.61-20.2-.11-36.53-5.12-48.55-5.69-13.64-15.78-22-29.17-24.26-14.22-2.37-27,1.68-39.34,5.6C147.6,27.5,137,30.87,125,30.87s-22.6-3.37-32.85-6.62c-12.35-3.92-25.12-8-39.34-5.6C39.42,20.88,29.33,29.27,23.64,42.91c-5,12-6.73,28.35-5.12,48.55,1.7,21.2,10.13,50.76,21.48,75.3,9.69,20.93,24.91,45.87,42.46,45.87,19.06,0,42.65-27.32,49.43-35.7s28.43-36.88,28.43-59.4c0-9.83-5.06-18.14-14.24-23.41A45,45,0,0,0,125,88.52a45,45,0,0,0-21.08,5.6c-9.18,5.27-14.23,13.58-14.23,23.41,0,13.8,8.17,29.9,16,42.19q2.2-2.62,4.49-5.59,3.09-4,5.6-7.75c-6.61-11.36-10.55-21.82-10.55-28.85,0-11.15,15.57-13.43,19.74-13.43s19.74,2.28,19.74,13.43-10,31.16-25,49.61C103.89,186.78,89,197.06,82.46,197.06c-3.9,0-14.84-7.7-28.32-36.84-10.65-23-18.53-50.48-20.09-70-1.9-23.71.26-52.7,21.32-56.21,10.52-1.76,20.51,1.41,32.07,5.08,10.85,3.45,23.14,7.35,37.56,7.35s26.71-3.9,37.56-7.35c11.56-3.67,21.54-6.84,32.07-5.08,21.06,3.51,23.22,32.5,21.32,56.21-1.56,19.52-9.44,47-20.09,70-13.48,29.14-24.42,36.84-28.32,36.84-4.26,0-12.11-4.39-21.48-12.93-.74.94-1.43,1.81-2.07,2.6-2.61,3.22-5.27,6.32-8,9.26,9.58,8.66,21.21,16.64,31.51,16.64C185.09,212.63,200.31,187.69,210,166.76Z"/></g></g></svg>
